<?xml version="1.0" encoding="UTF-8"?>
<svg version="1.1" xmlns="http://www.w3.org/2000/svg" width="294" height="123">
<path d="M0 0 C3.96 0 7.92 0 12 0 C12 11.22 12 22.44 12 34 C14.31 34 16.62 34 19 34 C19 22.78 19 11.56 19 0 C23.29 0 27.58 0 32 0 C31.67 11.22 31.34 22.44 31 34 C32.65 34 34.3 34 36 34 C36 22.78 36 11.56 36 0 C39.96 0 43.92 0 48 0 C48 11.22 48 22.44 48 34 C49.32 34 50.64 34 52 34 C52 22.78 52 11.56 52 0 C55.96 0 59.92 0 64 0 C64 14.85 64 29.7 64 45 C46.84 45 29.68 45 12 45 C12 50.61 12 56.22 12 62 C5.4 62 -1.2 62 -8 62 C-8 58.04 -8 54.08 -8 50 C-5.36 50 -2.72 50 0 50 C0 33.5 0 17 0 0 Z " fill="#2A2A61" transform="translate(195,45)"/>
<path d="M0 0 C11.22 0 22.44 0 34 0 C34.02094515 7.92890315 34.04098329 15.85770665 34.05175018 23.78661346 C34.05704002 27.47860391 34.06411374 31.17057155 34.07543945 34.86254883 C34.08627162 38.41570831 34.09227753 41.96884563 34.09487724 45.52202034 C34.0967309 46.88045666 34.10035038 48.23889171 34.10573006 49.59731865 C34.11294475 51.49382223 34.11340809 53.39034793 34.11352539 55.28686523 C34.115746 56.36830307 34.11796661 57.44974091 34.12025452 58.56394958 C34 61 34 61 33 62 C31.4651703 62.09319449 29.92607918 62.117458 28.38842773 62.11352539 C27.3937146 62.11340454 26.39900146 62.11328369 25.37414551 62.11315918 C24.32126343 62.10804321 23.26838135 62.10292725 22.18359375 62.09765625 C21.22134888 62.09664917 20.259104 62.09564209 19.2677002 62.09460449 C15.65762142 62.0893546 12.04755957 62.07539348 8.4375 62.0625 C0.373125 62.041875 -7.69125 62.02125 -16 62 C-16 44.51 -16 27.02 -16 9 C-12.04 9 -8.08 9 -4 9 C-4 22.53 -4 36.06 -4 50 C4.58 50 13.16 50 22 50 C22 48.35 22 46.7 22 45 C14.74 45 7.48 45 0 45 C0 30.15 0 15.3 0 0 Z M12 12 C12 19.26 12 26.52 12 34 C15.3 34 18.6 34 22 34 C22 26.74 22 19.48 22 12 C18.7 12 15.4 12 12 12 Z " fill="#0F0F4B" transform="translate(133,45)"/>
<path d="M0 0 C0.78375 0.2475 1.5675 0.495 2.375 0.75 C4.06667828 4.13335656 3.50370768 7.9768801 3.48852539 11.69775391 C3.48867142 12.62463516 3.48881744 13.55151642 3.4889679 14.50648499 C3.48826946 17.5798677 3.48048027 20.65319033 3.47265625 23.7265625 C3.47079182 25.85362719 3.46936804 27.9806923 3.46836853 30.10775757 C3.46454528 35.71375712 3.45471662 41.31973088 3.44366455 46.92572021 C3.4334463 52.64318493 3.42887002 58.36065379 3.42382812 64.078125 C3.4130942 75.30209468 3.39602007 86.5260452 3.375 97.75 C4.74016251 97.74000725 4.74016251 97.74000725 6.13290405 97.72981262 C14.69704886 97.66977748 23.26112331 97.62406437 31.82542992 97.59456348 C36.22876311 97.57888706 40.63192288 97.55761302 45.03515625 97.52368164 C49.28210791 97.49115825 53.52889246 97.47316189 57.77595901 97.46536827 C59.39874529 97.45981208 61.02152212 97.44896257 62.64423752 97.43280983 C64.9119541 97.41112822 67.17897431 97.40802909 69.44677734 97.40942383 C70.73917328 97.40276199 72.03156921 97.39610016 73.36312866 97.38923645 C74.3570462 97.50828842 75.35096375 97.62734039 76.375 97.75 C78.375 100.75 78.375 100.75 78.1875 102.8125 C77.375 104.75 77.375 104.75 74.375 106.75 C71.8841447 106.94895773 69.50488356 107.0334186 67.01367188 107.0246582 C66.26702774 107.02976913 65.52038361 107.03488007 64.75111389 107.04014587 C62.28191118 107.05405152 59.81298722 107.0530846 57.34375 107.05078125 C55.6288645 107.05466726 53.91397996 107.05900174 52.19909668 107.06376648 C48.60454183 107.07123049 45.01008519 107.07093583 41.41552734 107.06567383 C36.80506827 107.05987476 32.19501034 107.07681969 27.58461761 107.1000185 C24.04333132 107.11473576 20.50214214 107.11563037 16.96083069 107.11250877 C15.26073918 107.11302286 13.56064236 107.11827698 11.86058044 107.12832069 C9.48556271 107.14063105 7.11133285 107.13392688 4.73632812 107.12231445 C4.03182022 107.12995819 3.32731232 107.13760193 2.60145569 107.14547729 C-2.16637266 107.09384204 -2.16637266 107.09384204 -4.30517769 105.49033737 C-5.94034539 103.33418087 -6.00188223 102.21683503 -6.00595093 99.53038025 C-6.0144104 98.67090286 -6.02286987 97.81142548 -6.03158569 96.92590332 C-6.025513 95.98605591 -6.01944031 95.0462085 -6.01318359 94.07788086 C-6.01844055 93.08579117 -6.02369751 92.09370148 -6.02911377 91.07154846 C-6.04233901 87.78582101 -6.03356724 84.50057629 -6.0234375 81.21484375 C-6.02545734 78.93705655 -6.02836803 76.65926997 -6.03213501 74.38148499 C-6.03656166 69.60574187 -6.03011561 64.83016695 -6.01611328 60.05444336 C-5.99901168 53.92158356 -6.00886684 47.78911732 -6.02683067 41.65627193 C-6.03765095 36.95265211 -6.0342304 32.24912621 -6.0264473 27.54550362 C-6.02444093 25.28358476 -6.02691977 23.02165748 -6.03388596 20.75974846 C-6.04147255 17.60384268 -6.02993567 14.44858211 -6.01318359 11.29272461 C-6.01925629 10.35085297 -6.02532898 9.40898132 -6.03158569 8.43856812 C-6.02312622 7.58191055 -6.01466675 6.72525299 -6.00595093 5.84263611 C-6.00481985 5.09619308 -6.00368877 4.34975004 -6.00252342 3.58068752 C-5.29813338 0.16495757 -3.15397403 -0.30037848 0 0 Z " fill="#16174E" transform="translate(14.625,6.25)"/>
<path d="M0 0 C2 2 2 2 2.24050903 4.51834106 C2.23606781 5.5797934 2.23162659 6.64124573 2.22705078 7.73486328 C2.22682419 9.53650436 2.22682419 9.53650436 2.22659302 11.37454224 C2.21627045 12.67664642 2.20594788 13.97875061 2.1953125 15.3203125 C2.19158276 16.66266673 2.18873561 18.00502367 2.18673706 19.34738159 C2.17909744 22.882014 2.1594463 26.41648228 2.1373291 29.9510498 C2.11687765 33.5571877 2.10773685 37.16335209 2.09765625 40.76953125 C2.07620058 47.84642776 2.04101586 54.92318591 2 62 C-1.96 61.67 -5.92 61.34 -10 61 C-10 41.53 -10 22.06 -10 2 C-6.63738948 1.15934737 -3.44242296 0.37417641 0 0 Z " fill="#232359" transform="translate(276,29)"/>
<path d="M0 0 C3.63 0 7.26 0 11 0 C12.75533958 1.75533958 12.17046549 4.23613828 12.20532227 6.62133789 C12.22526749 7.82250748 12.24521271 9.02367706 12.26576233 10.26124573 C12.28247482 11.5685112 12.29918732 12.87577667 12.31640625 14.22265625 C12.33696958 15.56644847 12.35796588 16.91023412 12.37937927 18.25401306 C12.43466419 21.79674987 12.48404498 25.33954567 12.53222656 28.88238525 C12.58239487 32.4952115 12.63810525 36.10795172 12.69335938 39.72070312 C12.8010194 46.81372901 12.90193489 53.90683404 13 61 C8.71 60.67 4.42 60.34 0 60 C0 40.2 0 20.4 0 0 Z " fill="#25245A" transform="translate(171,30)"/>
<path d="M0 0 C0.33 0 0.66 0 1 0 C1 31.35 1 62.7 1 95 C24.93442702 94.8811921 24.93442702 94.8811921 48.86865234 94.72973633 C53.4934082 94.71618652 53.4934082 94.71618652 55.65713501 94.71366882 C57.17124066 94.7090562 58.68533516 94.69849285 60.19937134 94.68327332 C62.49036866 94.66139098 64.78069156 94.65827927 67.07177734 94.65942383 C68.36417328 94.65276199 69.65656921 94.64610016 70.98812866 94.63923645 C71.9820462 94.75828842 72.97596375 94.87734039 74 95 C76 98 76 98 75.8125 100.0625 C75 102 75 102 72 104 C69.49233291 104.18365409 67.09772507 104.25246496 64.59106445 104.22705078 C63.83960144 104.22734283 63.08813843 104.22763489 62.31390381 104.22793579 C59.83024547 104.22654253 57.34688718 104.21098166 54.86328125 104.1953125 C53.14121159 104.19158235 51.4191398 104.18873539 49.69706726 104.18673706 C45.16456238 104.17910073 40.63218568 104.15945225 36.09973145 104.1373291 C31.47470839 104.11687067 26.84966463 104.10773535 22.22460938 104.09765625 C13.14968327 104.07620635 4.07485229 104.0420704 -5 104 C-5.33 103.01 -5.66 102.02 -6 101 C-5.030625 100.71125 -4.06125 100.4225 -3.0625 100.125 C0.10664203 99.35785318 0.10664203 99.35785318 1 97 C21.79 97 42.58 97 64 97 C32.32 96.505 32.32 96.505 0 96 C0 64.32 0 32.64 0 0 Z " fill="#3E3E6E" transform="translate(17,9)"/>
<path d="M0 0 C1.03454819 -0.00960754 2.06909637 -0.01921509 3.13499451 -0.02911377 C4.26099564 -0.03336365 5.38699677 -0.03761353 6.54711914 -0.04199219 C8.2691732 -0.0505423 8.2691732 -0.0505423 10.02601624 -0.05926514 C12.45971754 -0.06873145 14.89343176 -0.07525556 17.32714844 -0.07910156 C21.06280698 -0.08881656 24.7979178 -0.11982918 28.53344727 -0.15136719 C30.89216794 -0.1578958 33.25089257 -0.16314683 35.60961914 -0.16699219 C37.29558449 -0.18551239 37.29558449 -0.18551239 39.01560974 -0.20440674 C40.05331009 -0.20140564 41.09101044 -0.19840454 42.16015625 -0.1953125 C43.07647324 -0.19895813 43.99279022 -0.20260376 44.93687439 -0.20635986 C45.66548172 -0.08508728 46.39408905 0.0361853 47.14477539 0.16113281 C49.14477539 3.16113281 49.14477539 3.16113281 48.89477539 5.78613281 C48.64727539 6.56988281 48.39977539 7.35363281 48.14477539 8.16113281 C45.67540088 9.39582007 44.0295038 9.29464154 41.26782227 9.30639648 C39.74614441 9.31596626 39.74614441 9.31596626 38.19372559 9.32572937 C36.54527649 9.32739861 36.54527649 9.32739861 34.86352539 9.32910156 C33.73910034 9.33242996 32.61467529 9.33575836 31.45617676 9.33918762 C29.075525 9.34425692 26.69486613 9.34659595 24.31420898 9.34643555 C20.65995676 9.34862372 17.00600547 9.36678428 13.35180664 9.38574219 C11.04321393 9.38867569 8.73461978 9.39066077 6.42602539 9.39160156 C5.32705933 9.39878708 4.22809326 9.4059726 3.0958252 9.41337585 C2.08137329 9.41029922 1.06692139 9.4072226 0.02172852 9.40405273 C-1.32157532 9.40619026 -1.32157532 9.40619026 -2.6920166 9.40837097 C-4.85522461 9.16113281 -4.85522461 9.16113281 -6.85522461 7.16113281 C-6.23569331 1.08972605 -6.01278497 0.04484364 0 0 Z " fill="#AFAFAF" transform="translate(28.855224609375,80.8388671875)"/>
<path d="M0 0 C3.3 0 6.6 0 10 0 C10 10.89 10 21.78 10 33 C11.98 33 13.96 33 16 33 C16 22.11 16 11.22 16 0 C19.3 0 22.6 0 26 0 C26 14.19 26 28.38 26 43 C8.84 43 -8.32 43 -26 43 C-26 42.67 -26 42.34 -26 42 C-9.83 41.67 6.34 41.34 23 41 C23.87591135 36.62044324 24.13041297 32.71039612 24.09765625 28.29296875 C24.0962413 27.56757401 24.09482635 26.84217926 24.09336853 26.09480286 C24.08779931 23.7923255 24.07525261 21.48994765 24.0625 19.1875 C24.05748102 17.62044412 24.05291881 16.0533867 24.04882812 14.48632812 C24.03783998 10.65751411 24.02059673 6.82877389 24 3 C21.69 2.67 19.38 2.34 17 2 C17 12.89 17 23.78 17 35 C13 37 13 37 10.875 36.5 C8.25475535 34.40380428 7.83011866 32.18212154 7 29 C3.06924356 29.57452746 3.06924356 29.57452746 0 32 C0 21.44 0 10.88 0 0 Z " fill="#010140" transform="translate(232,46)"/>
<path d="M0 0 C11.22 0 22.44 0 34 0 C34.02094515 7.92890315 34.04098329 15.85770665 34.05175018 23.78661346 C34.05704002 27.47860391 34.06411374 31.17057155 34.07543945 34.86254883 C34.08627162 38.41570831 34.09227753 41.96884563 34.09487724 45.52202034 C34.0967309 46.88045666 34.10035038 48.23889171 34.10573006 49.59731865 C34.11294475 51.49382223 34.11340809 53.39034793 34.11352539 55.28686523 C34.115746 56.36830307 34.11796661 57.44974091 34.12025452 58.56394958 C34 61 34 61 33 62 C31.4651703 62.09319449 29.92607918 62.117458 28.38842773 62.11352539 C27.3937146 62.11340454 26.39900146 62.11328369 25.37414551 62.11315918 C24.32126343 62.10804321 23.26838135 62.10292725 22.18359375 62.09765625 C21.22134888 62.09664917 20.259104 62.09564209 19.2677002 62.09460449 C15.65762142 62.0893546 12.04755957 62.07539348 8.4375 62.0625 C0.373125 62.041875 -7.69125 62.02125 -16 62 C-16 44.51 -16 27.02 -16 9 C-15.67 9 -15.34 9 -15 9 C-15 25.83 -15 42.66 -15 60 C0.18 60 15.36 60 31 60 C31 40.86 31 21.72 31 2 C21.1 2 11.2 2 1 2 C1 16.19 1 30.38 1 45 C0.67 45 0.34 45 0 45 C0 30.15 0 15.3 0 0 Z " fill="#72728F" transform="translate(133,45)"/>
<path d="M0 0 C3.3125 0.6875 3.3125 0.6875 4.8671875 2.6015625 C6.45057664 5.25148319 7.88952966 7.94837747 9.3125 10.6875 C10.27056857 12.2918248 11.22888238 13.8960032 12.1875 15.5 C14.10227151 18.70934974 14.72199869 20.93376203 14.3125 24.6875 C12.3125 26.6875 12.3125 26.6875 9.5625 26.9375 C4.39924326 24.95163202 2.74963834 20.44942633 0.3125 15.6875 C-0.02523437 16.38617188 -0.36296875 17.08484375 -0.7109375 17.8046875 C-1.15695313 18.71476562 -1.60296875 19.62484375 -2.0625 20.5625 C-2.50335938 21.46742187 -2.94421875 22.37234375 -3.3984375 23.3046875 C-4.6875 25.6875 -4.6875 25.6875 -6.6875 27.6875 C-8.6675 27.0275 -10.6475 26.3675 -12.6875 25.6875 C-13.68766764 22.6821419 -14.00752881 20.51402378 -12.84863281 17.52099609 C-11.57532346 15.08943546 -10.22159869 12.73042369 -8.8125 10.375 C-8.33941406 9.55193359 -7.86632812 8.72886719 -7.37890625 7.88085938 C-3.30771092 0.84615861 -3.30771092 0.84615861 0 0 Z " fill="#292A58" transform="translate(231.6875,10.3125)"/>
<path d="M0 0 C5.28 0 10.56 0 16 0 C16.82810826 3.31243305 17.09278428 5.65976579 17 9 C16.67 8.34 16.34 7.68 16 7 C14.68 7 13.36 7 12 7 C12 8.32 12 9.64 12 11 C12.804375 10.979375 13.60875 10.95875 14.4375 10.9375 C17 11 17 11 18 12 C18.125 15.5 18.125 15.5 18 19 C17 20 17 20 14.95874023 20.11352539 C14.08419189 20.10828857 13.20964355 20.10305176 12.30859375 20.09765625 C11.36435547 20.09443359 10.42011719 20.09121094 9.44726562 20.08789062 C7.95743164 20.07532227 7.95743164 20.07532227 6.4375 20.0625 C5.44041016 20.05798828 4.44332031 20.05347656 3.41601562 20.04882812 C0.94395151 20.03700007 -1.52799518 20.02051849 -4 20 C-4 17.03 -4 14.06 -4 11 C-2.68 11 -1.36 11 0 11 C0 7.37 0 3.74 0 0 Z " fill="#3A3A69" transform="translate(265,95)"/>
<path d="M0 0 C0.83729141 -0.0033284 1.67458282 -0.0066568 2.5372467 -0.01008606 C4.31185353 -0.01515881 6.08646992 -0.01749428 7.86108398 -0.01733398 C10.58267881 -0.01951922 13.30386768 -0.03766758 16.02539062 -0.05664062 C17.74609236 -0.05957467 19.46679602 -0.06155939 21.1875 -0.0625 C22.00524399 -0.06968552 22.82298798 -0.07687103 23.66551208 -0.08427429 C29.43133421 -0.06085329 29.43133421 -0.06085329 31.66015625 2.16796875 C31.47265625 4.66796875 31.47265625 4.66796875 30.66015625 7.16796875 C26.96021067 9.63459914 24.09934328 9.47402011 19.81640625 9.46875 C19.05090454 9.47303513 18.28540283 9.47732025 17.4967041 9.48173523 C15.87948597 9.48747392 14.26224202 9.48798217 12.64501953 9.48364258 C10.16914972 9.48048024 7.69447228 9.50395406 5.21875 9.52929688 C3.64713693 9.53156967 2.07552063 9.53227346 0.50390625 9.53125 C-0.60712463 9.54506462 -0.60712463 9.54506462 -1.74060059 9.55915833 C-6.83005281 9.51326897 -6.83005281 9.51326897 -9.34570312 7.80932617 C-10.33984375 6.16796875 -10.33984375 6.16796875 -10.08984375 3.54296875 C-8.52078004 -1.42573299 -4.50894289 0.00612082 0 0 Z " fill="#B0B0B0" transform="translate(32.33984375,55.83203125)"/>
<path d="M0 0 C8.58 0 17.16 0 26 0 C26.66 1.65 27.32 3.3 28 5 C26.96484375 7.27929688 26.96484375 7.27929688 25 9 C22.50390625 9.51757812 22.50390625 9.51757812 19.5625 9.53125 C18.50289062 9.53640625 17.44328125 9.5415625 16.3515625 9.546875 C15.24554688 9.53140625 14.13953125 9.5159375 13 9.5 C11.89398438 9.51546875 10.78796875 9.5309375 9.6484375 9.546875 C8.58882812 9.54171875 7.52921875 9.5365625 6.4375 9.53125 C4.98150391 9.52448242 4.98150391 9.52448242 3.49609375 9.51757812 C1 9 1 9 -0.96484375 7.27929688 C-1.30644531 6.52712891 -1.64804687 5.77496094 -2 5 C-1.34 3.35 -0.68 1.7 0 0 Z " fill="#B1B1B2" transform="translate(23,31)"/>
<path d="M0 0 C3.3 0 6.6 0 10 0 C10 10.89 10 21.78 10 33 C11.98 33 13.96 33 16 33 C16 22.11 16 11.22 16 0 C19.3 0 22.6 0 26 0 C26 14.19 26 28.38 26 43 C8.84 43 -8.32 43 -26 43 C-26 42.67 -26 42.34 -26 42 C-9.83 41.67 6.34 41.34 23 41 C23.87591135 36.62044324 24.13041297 32.71039612 24.09765625 28.29296875 C24.0962413 27.56757401 24.09482635 26.84217926 24.09336853 26.09480286 C24.08779931 23.7923255 24.07525261 21.48994765 24.0625 19.1875 C24.05748102 17.62044412 24.05291881 16.0533867 24.04882812 14.48632812 C24.03783998 10.65751411 24.02059673 6.82877389 24 3 C21.69 2.67 19.38 2.34 17 2 C17 12.89 17 23.78 17 35 C15.68 35.66 14.36 36.32 13 37 C11.68 36.34 10.36 35.68 9 35 C8.67 24.11 8.34 13.22 8 2 C5.36 1.67 2.72 1.34 0 1 C0 0.67 0 0.34 0 0 Z " fill="#0C0D33" transform="translate(232,46)"/>
<path d="M0 0 C3.3 0 6.6 0 10 0 C10 11.22 10 22.44 10 34 C9.34 34 8.68 34 8 34 C8 23.44 8 12.88 8 2 C3.05536365 3.33563616 3.05536365 3.33563616 2 6 C1.91288225 9.06242321 1.8845154 12.10186465 1.90234375 15.1640625 C1.9037587 16.07127045 1.90517365 16.97847839 1.90663147 17.91317749 C1.91223904 20.81715155 1.92479282 23.72104915 1.9375 26.625 C1.94251402 28.59114472 1.9470771 30.55729065 1.95117188 32.5234375 C1.96221094 37.3489879 1.97948065 42.17448097 2 47 C1.01 47.495 1.01 47.495 0 48 C0 32.16 0 16.32 0 0 Z " fill="#080839" transform="translate(196,46)"/>
<path d="M0 0 C1.34384766 -0.03867187 1.34384766 -0.03867187 2.71484375 -0.078125 C3.48957031 0.03015625 4.26429688 0.1384375 5.0625 0.25 C7.0625 3.25 7.0625 3.25 6.8125 5.3125 C6.0625 7.25 6.0625 7.25 4.0625 9.25 C-2.968337 9.80800294 -2.968337 9.80800294 -6 8.0625 C-7.3320522 5.48719907 -6.79102401 3.95282604 -5.9375 1.25 C-4.27065985 -0.41684015 -2.28106931 0.03927236 0 0 Z " fill="#54537D" transform="translate(139.9375,29.75)"/>
<path d="M0 0 C0.89589844 -0.01417969 1.79179687 -0.02835938 2.71484375 -0.04296875 C5.0625 0.1875 5.0625 0.1875 7.0625 2.1875 C6.73278521 5.48464793 6.4398161 6.8101839 4.0625 9.1875 C-2.968337 9.74550294 -2.968337 9.74550294 -6 8 C-7.3320522 5.42469907 -6.79102401 3.89032604 -5.9375 1.1875 C-4.27188601 -0.47811399 -2.27787295 0.01634055 0 0 Z " fill="#04033E" transform="translate(159.9375,29.8125)"/>
<path d="M0 0 C-1 3 -1 3 -3 5 C-2.67 5.99 -2.34 6.98 -2 8 C-4.31 8 -6.62 8 -9 8 C-9.0825 8.763125 -9.165 9.52625 -9.25 10.3125 C-10.15269355 13.54715191 -11.13593461 14.35099265 -14 16 C-14.66 16 -15.32 16 -16 16 C-15.67 13.69 -15.34 11.38 -15 9 C-14.01 8.67 -13.02 8.34 -12 8 C-11.71125 7.05125 -11.4225 6.1025 -11.125 5.125 C-10 2 -10 2 -7.6875 0.0625 C-4.60143265 -1.15757314 -3.12197549 -0.9811923 0 0 Z " fill="#030344" transform="translate(237,16)"/>
<path d="M0 0 C0.33 0 0.66 0 1 0 C1 13.86 1 27.72 1 42 C-16.16 42 -33.32 42 -51 42 C-51 41.67 -51 41.34 -51 41 C-34.83 40.67 -18.66 40.34 -2 40 C-1.10607469 35.53037344 -0.78578075 31.3787597 -0.68359375 26.85546875 C-0.66281265 26.08568192 -0.64203156 25.31589508 -0.62062073 24.52278137 C-0.55553951 22.07777333 -0.49643409 19.63266317 -0.4375 17.1875 C-0.39427532 15.52407823 -0.35065979 13.86066656 -0.30664062 12.19726562 C-0.19990093 8.13161352 -0.09851829 4.06585929 0 0 Z " fill="#00012F" transform="translate(257,47)"/>
<path d="M0 0 C-0.99 1.485 -0.99 1.485 -2 3 C-2.66 3 -3.32 3 -4 3 C-4.26554688 3.62648438 -4.53109375 4.25296875 -4.8046875 4.8984375 C-5.33449219 6.12433594 -5.33449219 6.12433594 -5.875 7.375 C-6.22304687 8.18710937 -6.57109375 8.99921875 -6.9296875 9.8359375 C-8 12 -8 12 -10 14 C-11.98 13.34 -13.96 12.68 -16 12 C-16.94693195 8.2983569 -17.30443767 6.60887535 -15.5625 3.125 C-15.046875 2.42375 -14.53125 1.7225 -14 1 C-13.06576355 4.01031744 -12.95550089 4.86650268 -14 8 C-9.80638753 5.90319377 -8.50423418 4.39699222 -7 0 C-4.3333581 -1.33332095 -2.83319697 -0.67102033 0 0 Z " fill="#515175" transform="translate(235,24)"/>
<path d="M0 0 C2.97 0 5.94 0 9 0 C9 10.56 9 21.12 9 32 C8.67 32 8.34 32 8 32 C7.67 22.43 7.34 12.86 7 3 C4.03 2.505 4.03 2.505 1 2 C1 11.57 1 21.14 1 31 C0.67 31 0.34 31 0 31 C0 20.77 0 10.54 0 0 Z " fill="#000036" transform="translate(216,46)"/>
<path d="M0 0 C3.3125 -0.3125 3.3125 -0.3125 7 0 C9 2.3125 9 2.3125 10 5 C9.67 5.99 9.34 6.98 9 8 C4.545 8.495 4.545 8.495 0 9 C0 6.03 0 3.06 0 0 Z " fill="#020048" transform="translate(188,96)"/>
<path d="M0 0 C0.886875 0.165 1.77375 0.33 2.6875 0.5 C3.0175 2.15 3.3475 3.8 3.6875 5.5 C2.945 5.644375 2.2025 5.78875 1.4375 5.9375 C0.53 6.123125 -0.3775 6.30875 -1.3125 6.5 C-2.3953125 6.5928125 -2.3953125 6.5928125 -3.5 6.6875 C-4.098125 6.955625 -4.69625 7.22375 -5.3125 7.5 C-6.01631157 9.48723268 -6.6836811 11.48777953 -7.3125 13.5 C-8.3025 13.83 -9.2925 14.16 -10.3125 14.5 C-8.70366737 8.64969954 -6.58245432 0.99357801 0 0 Z " fill="#050536" transform="translate(232.3125,10.5)"/>
<path d="M0 0 C3.0916909 2.52956528 3.90931332 5.22454612 5 9 C4.54625 9.391875 4.0925 9.78375 3.625 10.1875 C1.72357081 12.30832487 0.93795972 14.33042235 0 17 C-2 15 -2 15 -2.125 11.5625 C-2.08375 10.386875 -2.0425 9.21125 -2 8 C-2 7.01 -2 6.02 -2 5 C-1.34 4.67 -0.68 4.34 0 4 C0 2.68 0 1.36 0 0 Z " fill="#343464" transform="translate(236,14)"/>
<path d="M0 0 C4.62 0 9.24 0 14 0 C14 1.65 14 3.3 14 5 C12.68 5 11.36 5 10 5 C9.67 4.34 9.34 3.68 9 3 C7.10466658 2.53476937 7.10466658 2.53476937 4.9375 2.375 C3.638125 2.25125 2.33875 2.1275 1 2 C1 4.97 1 7.94 1 11 C0.67 11 0.34 11 0 11 C0 7.37 0 3.74 0 0 Z " fill="#030233" transform="translate(266,96)"/>
<path d="M0 0 C1.37478516 0.01740234 1.37478516 0.01740234 2.77734375 0.03515625 C3.69644531 0.04417969 4.61554688 0.05320312 5.5625 0.0625 C6.27277344 0.07410156 6.98304688 0.08570312 7.71484375 0.09765625 C8.04484375 1.08765625 8.37484375 2.07765625 8.71484375 3.09765625 C6.07484375 2.43765625 3.43484375 1.77765625 0.71484375 1.09765625 C1.04484375 2.08765625 1.37484375 3.07765625 1.71484375 4.09765625 C4.21931891 5.31635554 4.21931891 5.31635554 6.71484375 6.09765625 C6.71484375 6.42765625 6.71484375 6.75765625 6.71484375 7.09765625 C3.74484375 7.09765625 0.77484375 7.09765625 -2.28515625 7.09765625 C-2.66648924 5.10625065 -2.99841207 3.10486548 -3.28515625 1.09765625 C-2.28515625 0.09765625 -2.28515625 0.09765625 0 0 Z " fill="#27284E" transform="translate(136.28515625,30.90234375)"/>
<path d="M0 0 C0.99 0 1.98 0 3 0 C3 1.98 3 3.96 3 6 C3.66 6 4.32 6 5 6 C5.185625 5.0409375 5.185625 5.0409375 5.375 4.0625 C5.58125 3.381875 5.7875 2.70125 6 2 C6.66 1.67 7.32 1.34 8 1 C8.125 3.375 8.125 3.375 8 6 C7.34 6.66 6.68 7.32 6 8 C3 7.9375 3 7.9375 0 7 C-1.375 4.4375 -1.375 4.4375 -2 2 C-1.34 1.34 -0.68 0.68 0 0 Z " fill="#49486F" transform="translate(238,29)"/>
<path d="M0 0 C1.62463842 -0.05395478 3.24978541 -0.09277195 4.875 -0.125 C5.77992188 -0.14820312 6.68484375 -0.17140625 7.6171875 -0.1953125 C10 0 10 0 12 2 C11.67028521 5.29714793 11.3773161 6.6226839 9 9 C6.31160615 9.26991906 3.70858064 9.08737357 1 9 C0.67 8.34 0.34 7.68 0 7 C5.445 6.01 5.445 6.01 11 5 C9.37921338 1.82990528 9.37921338 1.82990528 6.8359375 1.48828125 C6.02382812 1.43027344 5.21171875 1.37226563 4.375 1.3125 C3.55773437 1.24675781 2.74046875 1.18101563 1.8984375 1.11328125 C1.27195313 1.07589844 0.64546875 1.03851562 0 1 C0 0.67 0 0.34 0 0 Z " fill="#7B7A97" transform="translate(155,30)"/>
<path d="M0 0 C2.31 0 4.62 0 7 0 C6.360625 0.598125 5.72125 1.19625 5.0625 1.8125 C2.79689611 3.90810337 2.79689611 3.90810337 2 7 C2.99 7.33 3.98 7.66 5 8 C5 8.33 5 8.66 5 9 C3.35 9 1.7 9 0 9 C0 6.03 0 3.06 0 0 Z " fill="#030132" transform="translate(188,96)"/>
<path d="M0 0 C3.3 0 6.6 0 10 0 C10 0.33 10 0.66 10 1 C7.69 1 5.38 1 3 1 C3.33 2.65 3.66 4.3 4 6 C2.35 5.67 0.7 5.34 -1 5 C-0.67 3.35 -0.34 1.7 0 0 Z " fill="#2E2D52" transform="translate(154,31)"/>
<path d="M0 0 C2.97 0 5.94 0 9 0 C9 1.65 9 3.3 9 5 C8.34 4.34 7.68 3.68 7 3 C5.01178687 2.60235737 3.01055661 2.26224651 1 2 C0.67 2.66 0.34 3.32 0 4 C0 2.68 0 1.36 0 0 Z " fill="#080A33" transform="translate(216,46)"/>
<path d="M0 0 C1.28222189 3.03070628 0.98589446 4.03596914 -0.25 7.1875 C-2 10 -2 10 -5 11 C-3.77472971 6.94718288 -2.30119506 3.55639236 0 0 Z " fill="#676883" transform="translate(227,14)"/>
<path d="M0 0 C2.64 0 5.28 0 8 0 C7.67 0.99 7.34 1.98 7 3 C4 4 4 4 1.8125 3.0625 C1.214375 2.711875 0.61625 2.36125 0 2 C0 1.34 0 0.68 0 0 Z " fill="#141443" transform="translate(241,79)"/>
<path d="M0 0 C0.33 0.66 0.66 1.32 1 2 C1.99 2.33 2.98 2.66 4 3 C3.6875 4.9375 3.6875 4.9375 3 7 C2.01 7.33 1.02 7.66 0 8 C-1.09658936 4.71023192 -0.79953138 3.28696233 0 0 Z " fill="#050439" transform="translate(241,27)"/>
<path d="M0 0 C3.3 0.66 6.6 1.32 10 2 C10 2.33 10 2.66 10 3 C6.04 3 2.08 3 -2 3 C-1.34 2.01 -0.68 1.02 0 0 Z " fill="#010132" transform="translate(145,53)"/>
<path d="M0 0 C1.98 0 3.96 0 6 0 C6 0.99 6 1.98 6 3 C4.68 3.33 3.36 3.66 2 4 C2 3.34 2 2.68 2 2 C1.01 2.33 0.02 2.66 -1 3 C-0.67 2.01 -0.34 1.02 0 0 Z " fill="#666684" transform="translate(229,11)"/>
<path d="M0 0 C0.66 0 1.32 0 2 0 C2 0.66 2 1.32 2 2 C1.34 2 0.68 2 0 2 C0 1.34 0 0.68 0 0 Z " fill="#FFFFFF" transform="translate(228,45)"/>
<path d="M0 0 C0.66 0 1.32 0 2 0 C2 0.66 2 1.32 2 2 C1.34 2 0.68 2 0 2 C0 1.34 0 0.68 0 0 Z " fill="#FFFFFF" transform="translate(231,27)"/>
<path d="" fill="#FFFFFF" transform="translate(0,0)"/>
<path d="" fill="#FFFFFF" transform="translate(0,0)"/>
<path d="" fill="#FFFFFF" transform="translate(0,0)"/>
<path d="" fill="#FFFFFF" transform="translate(0,0)"/>
<path d="" fill="#FFFFFF" transform="translate(0,0)"/>
<path d="" fill="#FFFFFF" transform="translate(0,0)"/>
<path d="" fill="#FFFFFF" transform="translate(0,0)"/>
<path d="" fill="#FFFFFF" transform="translate(0,0)"/>
<path d="" fill="#FFFFFF" transform="translate(0,0)"/>
<path d="" fill="#FFFFFF" transform="translate(0,0)"/>
<path d="" fill="#FFFFFF" transform="translate(0,0)"/>
<path d="" fill="#FFFFFF" transform="translate(0,0)"/>
<path d="" fill="#FFFFFF" transform="translate(0,0)"/>
<path d="" fill="#FFFFFF" transform="translate(0,0)"/>
<path d="" fill="#FFFFFF" transform="translate(0,0)"/>
<path d="" fill="#FFFFFF" transform="translate(0,0)"/>
<path d="" fill="#FFFFFF" transform="translate(0,0)"/>
<path d="" fill="#FFFFFF" transform="translate(0,0)"/>
<path d="" fill="#FFFFFF" transform="translate(0,0)"/>
<path d="" fill="#FFFFFF" transform="translate(0,0)"/>
<path d="" fill="#FFFFFF" transform="translate(0,0)"/>
<path d="" fill="#FFFFFF" transform="translate(0,0)"/>
</svg>
